<?xml version="1.0" encoding="UTF-8" standalone="no"?>
<!-- Created with Inkscape (http://www.inkscape.org/) -->

<svg
   xmlns:dc="http://purl.org/dc/elements/1.1/"
   xmlns:cc="http://creativecommons.org/ns#"
   xmlns:rdf="http://www.w3.org/1999/02/22-rdf-syntax-ns#"
   xmlns:svg="http://www.w3.org/2000/svg"
   xmlns="http://www.w3.org/2000/svg"
   xmlns:xlink="http://www.w3.org/1999/xlink"
   xmlns:sodipodi="http://sodipodi.sourceforge.net/DTD/sodipodi-0.dtd"
   xmlns:inkscape="http://www.inkscape.org/namespaces/inkscape"
   width="242.71028mm"
   height="72.939201mm"
   viewBox="0 0 242.71028 72.939201"
   version="1.1"
   id="svg8"
   inkscape:version="0.92.4 (5da689c313, 2019-01-14)"
   sodipodi:docname="made_with_bw.svg"
   inkscape:export-filename="C:\0Heikki\20211212_openstreetmap_logo\madewith\made_with_black.png"
   inkscape:export-xdpi="300"
   inkscape:export-ydpi="300">
  <defs
     id="defs2">
    <linearGradient
       id="linearGradient8729"
       inkscape:collect="always">
      <stop
         id="stop8731"
         offset="0"
         style="stop-color:#000000;stop-opacity:1;" />
      <stop
         id="stop8733"
         offset="1"
         style="stop-color:#000000;stop-opacity:0;" />
    </linearGradient>
    <linearGradient
       id="linearGradient6846">
      <stop
         style="stop-color:#ffffff;stop-opacity:1;"
         offset="0"
         id="stop6848" />
      <stop
         id="stop6852"
         offset="0.5"
         style="stop-color:#ffffff;stop-opacity:0.93050194;" />
      <stop
         style="stop-color:#ffffff;stop-opacity:0;"
         offset="1"
         id="stop6850" />
    </linearGradient>
    <clipPath
       id="clipPath5383"
       clipPathUnits="userSpaceOnUse">
      <path
         inkscape:connector-curvature="0"
         id="path5385"
         d="m 9,12.25 c 0,0 7.5,13 11.75,27.75 C 25,54.75 27,65.5 27,65.5 c 0,0 -5.5,12.75 -8.25,24.75 -2.75,12 -5.75,23 -5.75,23 0,0 5.75,16 9.25,30 3.5,14 3.75,24.25 3.75,24.25 0,0 -4,10.25 -7.5,24.25 -3.5,14 -5,30.75 -5,30.75 0,0 9.25,-2 28.5,1.25 19.25,3.25 32.25,6 32.25,6 0,0 12.75,-2.75 24,-6.25 11.25,-3.5 16.25,-6.5 16.25,-6.5 0,0 5.5,0.5 22.5,6.25 17,5.75 29.25,8.5 29.25,8.5 0,0 13,-2.75 26,-5.75 13,-3 26.5,-8 26.5,-8 0,0 -0.75,-5 4.25,-24.5 5,-19.5 8.75,-28 8.75,-28 0,0 -0.5,-4.5 -3.75,-19.75 C 224.75,130.5 218,116 218,116 c 0,0 1.75,-10.5 6.75,-23.75 C 229.75,79 235,65.5 235,65.5 c 0,0 -4.75,-15.25 -7.5,-29.75 C 224.75,21.25 219.25,10 219.25,10 c 0,0 -24.25,9 -31.75,10.5 -7.5,1.5 -21,5.25 -21,5.25 0,0 -9.75,-4.25 -22,-8.5 -12.25,-4.25 -29.75,-5.5 -29.75,-5.5 0,0 -3.25,3.5 -22,8 -18.75,4.5 -27.5,5.75 -27.5,5.75 0,0 -18.5,-9 -31.5,-11.5 -13,-2.5 -24,-2 -24.75,-1.75 z"
         style="fill:#ceeeab;fill-opacity:1;stroke:none" />
    </clipPath>
    <clipPath
       id="clipPath5426"
       clipPathUnits="userSpaceOnUse">
      <path
         inkscape:connector-curvature="0"
         id="path5428"
         d="m 9,12.25 c 0,0 7.5,13 11.75,27.75 C 25,54.75 27,65.5 27,65.5 c 0,0 -5.5,12.75 -8.25,24.75 -2.75,12 -5.75,23 -5.75,23 0,0 5.75,16 9.25,30 3.5,14 3.75,24.25 3.75,24.25 0,0 -4,10.25 -7.5,24.25 -3.5,14 -5,30.75 -5,30.75 0,0 9.25,-2 28.5,1.25 19.25,3.25 32.25,6 32.25,6 0,0 12.75,-2.75 24,-6.25 11.25,-3.5 16.25,-6.5 16.25,-6.5 0,0 5.5,0.5 22.5,6.25 17,5.75 29.25,8.5 29.25,8.5 0,0 13,-2.75 26,-5.75 13,-3 26.5,-8 26.5,-8 0,0 -0.75,-5 4.25,-24.5 5,-19.5 8.75,-28 8.75,-28 0,0 -0.5,-4.5 -3.75,-19.75 C 224.75,130.5 218,116 218,116 c 0,0 1.75,-10.5 6.75,-23.75 C 229.75,79 235,65.5 235,65.5 c 0,0 -4.75,-15.25 -7.5,-29.75 C 224.75,21.25 219.25,10 219.25,10 c 0,0 -24.25,9 -31.75,10.5 -7.5,1.5 -21,5.25 -21,5.25 0,0 -9.75,-4.25 -22,-8.5 -12.25,-4.25 -29.75,-5.5 -29.75,-5.5 0,0 -3.25,3.5 -22,8 -18.75,4.5 -27.5,5.75 -27.5,5.75 0,0 -18.5,-9 -31.5,-11.5 -13,-2.5 -24,-2 -24.75,-1.75 z"
         style="fill:#ceeeab;fill-opacity:1;stroke:none" />
    </clipPath>
    <clipPath
       id="clipPath5466"
       clipPathUnits="userSpaceOnUse">
      <path
         inkscape:connector-curvature="0"
         id="path5468"
         d="m 9,12.25 c 0,0 7.5,13 11.75,27.75 C 25,54.75 27,65.5 27,65.5 c 0,0 -5.5,12.75 -8.25,24.75 -2.75,12 -5.75,23 -5.75,23 0,0 5.75,16 9.25,30 3.5,14 3.75,24.25 3.75,24.25 0,0 -4,10.25 -7.5,24.25 -3.5,14 -5,30.75 -5,30.75 0,0 9.25,-2 28.5,1.25 19.25,3.25 32.25,6 32.25,6 0,0 12.75,-2.75 24,-6.25 11.25,-3.5 16.25,-6.5 16.25,-6.5 0,0 5.5,0.5 22.5,6.25 17,5.75 29.25,8.5 29.25,8.5 0,0 13,-2.75 26,-5.75 13,-3 26.5,-8 26.5,-8 0,0 -0.75,-5 4.25,-24.5 5,-19.5 8.75,-28 8.75,-28 0,0 -0.5,-4.5 -3.75,-19.75 C 224.75,130.5 218,116 218,116 c 0,0 1.75,-10.5 6.75,-23.75 C 229.75,79 235,65.5 235,65.5 c 0,0 -4.75,-15.25 -7.5,-29.75 C 224.75,21.25 219.25,10 219.25,10 c 0,0 -24.25,9 -31.75,10.5 -7.5,1.5 -21,5.25 -21,5.25 0,0 -9.75,-4.25 -22,-8.5 -12.25,-4.25 -29.75,-5.5 -29.75,-5.5 0,0 -3.25,3.5 -22,8 -18.75,4.5 -27.5,5.75 -27.5,5.75 0,0 -18.5,-9 -31.5,-11.5 -13,-2.5 -24,-2 -24.75,-1.75 z"
         style="fill:#ceeeab;fill-opacity:1;stroke:none" />
    </clipPath>
    <linearGradient
       id="linearGradient5745-3">
      <stop
         id="stop5747-3"
         offset="0"
         style="stop-color:#d0e9f2;stop-opacity:0;" />
      <stop
         style="stop-color:#d0e9f2;stop-opacity:0;"
         offset="0.83932751"
         id="stop5753-6" />
      <stop
         id="stop5755-9"
         offset="0.94308507"
         style="stop-color:#d0e9f2;stop-opacity:0.28185329;" />
      <stop
         id="stop5749-0"
         offset="1"
         style="stop-color:#d0e9f2;stop-opacity:1;" />
    </linearGradient>
    <linearGradient
       id="linearGradient5762-8">
      <stop
         id="stop5764-5"
         offset="0"
         style="stop-color:#2d3335;stop-opacity:1;" />
      <stop
         style="stop-color:#4c464a;stop-opacity:1;"
         offset="0.5"
         id="stop5770-1" />
      <stop
         id="stop5766-2"
         offset="1"
         style="stop-color:#384042;stop-opacity:1;" />
    </linearGradient>
    <linearGradient
       id="linearGradient5862-3">
      <stop
         id="stop5864-8"
         offset="0"
         style="stop-color:#f9e295;stop-opacity:1;" />
      <stop
         style="stop-color:#f7dd84;stop-opacity:1;"
         offset="0.125"
         id="stop5876-09" />
      <stop
         style="stop-color:#ffffff;stop-opacity:1;"
         offset="0.20580582"
         id="stop5874-2" />
      <stop
         style="stop-color:#f4ce51;stop-opacity:1;"
         offset="0.30112621"
         id="stop5870-3" />
      <stop
         id="stop5872-1"
         offset="0.3412039"
         style="stop-color:#f9e7aa;stop-opacity:1;" />
      <stop
         id="stop5866-8"
         offset="1"
         style="stop-color:#efbb0e;stop-opacity:1;" />
    </linearGradient>
    <clipPath
       id="clipPath5466-2-3"
       clipPathUnits="userSpaceOnUse">
      <path
         inkscape:connector-curvature="0"
         id="path5468-3-2"
         d="m 9,12.25 c 0,0 7.5,13 11.75,27.75 C 25,54.75 27,65.5 27,65.5 c 0,0 -5.5,12.75 -8.25,24.75 -2.75,12 -5.75,23 -5.75,23 0,0 5.75,16 9.25,30 3.5,14 3.75,24.25 3.75,24.25 0,0 -4,10.25 -7.5,24.25 -3.5,14 -5,30.75 -5,30.75 0,0 9.25,-2 28.5,1.25 19.25,3.25 32.25,6 32.25,6 0,0 12.75,-2.75 24,-6.25 11.25,-3.5 16.25,-6.5 16.25,-6.5 0,0 5.5,0.5 22.5,6.25 17,5.75 29.25,8.5 29.25,8.5 0,0 13,-2.75 26,-5.75 13,-3 26.5,-8 26.5,-8 0,0 -0.75,-5 4.25,-24.5 5,-19.5 8.75,-28 8.75,-28 0,0 -0.5,-4.5 -3.75,-19.75 C 224.75,130.5 218,116 218,116 c 0,0 1.75,-10.5 6.75,-23.75 C 229.75,79 235,65.5 235,65.5 c 0,0 -4.75,-15.25 -7.5,-29.75 C 224.75,21.25 219.25,10 219.25,10 c 0,0 -24.25,9 -31.75,10.5 -7.5,1.5 -21,5.25 -21,5.25 0,0 -9.75,-4.25 -22,-8.5 -12.25,-4.25 -29.75,-5.5 -29.75,-5.5 0,0 -3.25,3.5 -22,8 -18.75,4.5 -27.5,5.75 -27.5,5.75 0,0 -18.5,-9 -31.5,-11.5 -13,-2.5 -24,-2 -24.75,-1.75 z"
         style="fill:#ceeeab;fill-opacity:1;stroke:none" />
    </clipPath>
    <clipPath
       id="clipPath5383-0-0"
       clipPathUnits="userSpaceOnUse">
      <path
         inkscape:connector-curvature="0"
         id="path5385-7-8"
         d="m 9,12.25 c 0,0 7.5,13 11.75,27.75 C 25,54.75 27,65.5 27,65.5 c 0,0 -5.5,12.75 -8.25,24.75 -2.75,12 -5.75,23 -5.75,23 0,0 5.75,16 9.25,30 3.5,14 3.75,24.25 3.75,24.25 0,0 -4,10.25 -7.5,24.25 -3.5,14 -5,30.75 -5,30.75 0,0 9.25,-2 28.5,1.25 19.25,3.25 32.25,6 32.25,6 0,0 12.75,-2.75 24,-6.25 11.25,-3.5 16.25,-6.5 16.25,-6.5 0,0 5.5,0.5 22.5,6.25 17,5.75 29.25,8.5 29.25,8.5 0,0 13,-2.75 26,-5.75 13,-3 26.5,-8 26.5,-8 0,0 -0.75,-5 4.25,-24.5 5,-19.5 8.75,-28 8.75,-28 0,0 -0.5,-4.5 -3.75,-19.75 C 224.75,130.5 218,116 218,116 c 0,0 1.75,-10.5 6.75,-23.75 C 229.75,79 235,65.5 235,65.5 c 0,0 -4.75,-15.25 -7.5,-29.75 C 224.75,21.25 219.25,10 219.25,10 c 0,0 -24.25,9 -31.75,10.5 -7.5,1.5 -21,5.25 -21,5.25 0,0 -9.75,-4.25 -22,-8.5 -12.25,-4.25 -29.75,-5.5 -29.75,-5.5 0,0 -3.25,3.5 -22,8 -18.75,4.5 -27.5,5.75 -27.5,5.75 0,0 -18.5,-9 -31.5,-11.5 -13,-2.5 -24,-2 -24.75,-1.75 z"
         style="fill:#ceeeab;fill-opacity:1;stroke:none" />
    </clipPath>
    <clipPath
       id="clipPath5426-1-6"
       clipPathUnits="userSpaceOnUse">
      <path
         inkscape:connector-curvature="0"
         id="path5428-0-9"
         d="m 9,12.25 c 0,0 7.5,13 11.75,27.75 C 25,54.75 27,65.5 27,65.5 c 0,0 -5.5,12.75 -8.25,24.75 -2.75,12 -5.75,23 -5.75,23 0,0 5.75,16 9.25,30 3.5,14 3.75,24.25 3.75,24.25 0,0 -4,10.25 -7.5,24.25 -3.5,14 -5,30.75 -5,30.75 0,0 9.25,-2 28.5,1.25 19.25,3.25 32.25,6 32.25,6 0,0 12.75,-2.75 24,-6.25 11.25,-3.5 16.25,-6.5 16.25,-6.5 0,0 5.5,0.5 22.5,6.25 17,5.75 29.25,8.5 29.25,8.5 0,0 13,-2.75 26,-5.75 13,-3 26.5,-8 26.5,-8 0,0 -0.75,-5 4.25,-24.5 5,-19.5 8.75,-28 8.75,-28 0,0 -0.5,-4.5 -3.75,-19.75 C 224.75,130.5 218,116 218,116 c 0,0 1.75,-10.5 6.75,-23.75 C 229.75,79 235,65.5 235,65.5 c 0,0 -4.75,-15.25 -7.5,-29.75 C 224.75,21.25 219.25,10 219.25,10 c 0,0 -24.25,9 -31.75,10.5 -7.5,1.5 -21,5.25 -21,5.25 0,0 -9.75,-4.25 -22,-8.5 -12.25,-4.25 -29.75,-5.5 -29.75,-5.5 0,0 -3.25,3.5 -22,8 -18.75,4.5 -27.5,5.75 -27.5,5.75 0,0 -18.5,-9 -31.5,-11.5 -13,-2.5 -24,-2 -24.75,-1.75 z"
         style="fill:#ceeeab;fill-opacity:1;stroke:none" />
    </clipPath>
    <clipPath
       id="clipPath8617"
       clipPathUnits="userSpaceOnUse">
      <path
         inkscape:connector-curvature="0"
         sodipodi:nodetypes="csssc"
         id="path8619"
         d="m 123.62289,141.06193 c 20.83191,20.24317 54.6071,19.28863 75.439,-2.132 20.8319,-21.42064 20.8319,-55.195816 0,-75.438984 -20.83191,-20.243167 -54.60709,-19.288643 -75.439,2.131999 -20.83189,21.42063 -20.8319,55.195815 0,75.438985 z"
         style="fill:url(#radialGradient8621);fill-opacity:1;stroke:none" />
    </clipPath>
    <radialGradient
       r="47"
       fy="86"
       fx="128"
       cy="86"
       cx="128"
       gradientTransform="matrix(0.80254238,0.77986154,0.80254238,-0.82522321,-10.401684,73.423363)"
       gradientUnits="userSpaceOnUse"
       id="radialGradient8621"
       xlink:href="#linearGradient5745-3"
       inkscape:collect="always" />
    <clipPath
       id="clipPath8750"
       clipPathUnits="userSpaceOnUse">
      <path
         inkscape:connector-curvature="0"
         sodipodi:nodetypes="cscscscscscscscscscscscscscscscsc"
         style="opacity:0.03913042;fill:url(#linearGradient8754);fill-opacity:1;stroke:none"
         d="m 9,22.578406 c 0,0 7.5,12.393417 11.75,26.799687 C 25,63.784363 27,74.372608 27,74.372608 c 0,0 -5.5,13.194827 -8.25,25.417241 C 16,112.01226 13,123.2549 13,123.2549 c 0,0 5.75,15.53495 9.25,29.25188 3.5,13.71692 3.75,23.94671 3.75,23.94671 0,0 -4,10.57351 -7.5,24.85658 -3.5,14.28307 -5,31.15439 -5,31.15439 0,0 9.25,-2.74812 28.5,-1.05502 19.25,1.69311 32.25,3.3917 32.25,3.3917 0,0 12.75,-3.78119 24,-8.19107 11.25,-4.40987 16.25,-7.81426 16.25,-7.81426 0,0 5.5,0.0552 22.5,4.43025 17,4.37508 29.25,6.13433 29.25,6.13433 0,0 13,-3.80141 26,-7.85282 13,-4.05141 26.5,-10.14326 26.5,-10.14326 0,0 -0.75,-4.93934 4.25,-24.84373 5,-19.90438 8.75,-28.70768 8.75,-28.70768 0,0 -0.5145,-4.4553 -3.75,-19.4467 -1.75,-8.10847 -2.25,-4.06803 -2.25,-4.06803 0,0 16.264,-26.15535 16.5,-40.334481 C 242.5,78.94347 235,57.550053 235,57.550053 c 0,0 -4.75,-14.865832 -7.5,-29.143418 -2.75,-14.277586 -8.25,-25.0827591 -8.25,-25.0827591 0,0 -24.25,10.9612831 -31.75,13.0678661 -7.5,2.106582 -21,6.948431 -21,6.948431 0,0 -9.75,-3.461443 -22,-6.720691 -12.25,-3.259249 -29.75,-3.09389 -29.75,-3.09389 0,0 -3.25,3.762853 -22,9.779309 -18.75,6.016456 -27.5,7.974136 -27.5,7.974136 0,0 -18.5,-7.503763 -31.5,-8.952353 -13,-1.448591 -24,-0.05894 -24.75,0.251722 z"
         id="path8752" />
    </clipPath>
    <linearGradient
       y2="-213.25346"
       x2="9"
       y1="72.064125"
       x1="210.17188"
       gradientTransform="matrix(1,-0.08087767,0,1,0,203.05629)"
       gradientUnits="userSpaceOnUse"
       id="linearGradient8754"
       xlink:href="#linearGradient8729"
       inkscape:collect="always" />
  </defs>
  <sodipodi:namedview
     id="base"
     pagecolor="#ffffff"
     bordercolor="#666666"
     borderopacity="1.0"
     inkscape:pageopacity="0"
     inkscape:pageshadow="2"
     inkscape:zoom="0.98994949"
     inkscape:cx="323.9158"
     inkscape:cy="-44.821341"
     inkscape:document-units="mm"
     inkscape:current-layer="layer1"
     showgrid="false"
     inkscape:snap-bbox="true"
     inkscape:bbox-paths="true"
     inkscape:snap-global="true"
     inkscape:snap-text-baseline="true"
     inkscape:window-width="1913"
     inkscape:window-height="1125"
     inkscape:window-x="1492"
     inkscape:window-y="48"
     inkscape:window-maximized="0" />
  <metadata
     id="metadata5">
    <rdf:RDF>
      <cc:Work
         rdf:about="">
        <dc:format>image/svg+xml</dc:format>
        <dc:type
           rdf:resource="http://purl.org/dc/dcmitype/StillImage" />
        <dc:title></dc:title>
      </cc:Work>
    </rdf:RDF>
  </metadata>
  <g
     inkscape:label="Layer 1"
     inkscape:groupmode="layer"
     id="layer1"
     transform="translate(-3.9785604,-14.089916)">
    <text
       xml:space="preserve"
       style="font-style:normal;font-weight:normal;font-size:10.58333302px;line-height:1.25;font-family:sans-serif;letter-spacing:0px;word-spacing:0px;fill:#000000;fill-opacity:1;stroke:none;stroke-width:0.26458332;"
       x="72.70269"
       y="38.010445"
       id="text5075"
       inkscape:export-xdpi="300"
       inkscape:export-ydpi="300"><tspan
         sodipodi:role="line"
         x="72.70269"
         y="38.010445"
         id="tspan5079"
         style="font-style:normal;font-variant:normal;font-weight:bold;font-stretch:normal;font-size:22.57777786px;line-height:0.80000001;font-family:Ubuntu;-inkscape-font-specification:'Ubuntu Bold';stroke-width:0.26458332;fill:#000000;">Made With</tspan><tspan
         sodipodi:role="line"
         x="72.70269"
         y="57.849442"
         style="font-style:normal;font-variant:normal;font-weight:bold;font-stretch:normal;font-size:22.57777786px;line-height:0.80000001;font-family:Ubuntu;-inkscape-font-specification:'Ubuntu Bold';stroke-width:0.26458332;fill:#000000;"
         id="tspan5103"><tspan
   dy="0"
   style="font-style:normal;font-variant:normal;font-weight:bold;font-stretch:normal;font-size:22.57777786px;line-height:0.80000001;font-family:Ubuntu;-inkscape-font-specification:'Ubuntu Bold';stroke-width:0.26458332;fill:#000000;"
   id="tspan5105">Open</tspan>StreetMap</tspan><tspan
         sodipodi:role="line"
         x="72.70269"
         y="71.078613"
         style="font-style:normal;font-variant:normal;font-weight:bold;font-stretch:normal;font-size:7.05555582px;line-height:0;font-family:Ubuntu;-inkscape-font-specification:'Ubuntu Bold';stroke-width:0.26458332;fill:#000000;"
         id="tspan5109" /><tspan
         sodipodi:role="line"
         x="72.70269"
         y="84.307777"
         style="font-style:normal;font-variant:normal;font-weight:bold;font-stretch:normal;font-size:14.11111164px;line-height:0.80000001;font-family:Ubuntu;-inkscape-font-specification:'Ubuntu Bold';stroke-width:0.26458332;fill:#000000;"
         id="tspan5107" /></text>
    <flowRoot
       xml:space="preserve"
       id="flowRoot5081"
       style="font-style:normal;font-weight:normal;font-size:40px;line-height:1.25;font-family:sans-serif;letter-spacing:0px;word-spacing:0px;fill:#000000;fill-opacity:1;stroke:none"
       transform="matrix(0.26458333,0,0,0.26458333,43.965838,3.8754081)"><flowRegion
         id="flowRegion5083"><rect
           id="rect5085"
           width="9.5964489"
           height="69.19545"
           x="377.29196"
           y="300.76059" /></flowRegion><flowPara
         id="flowPara5087"></flowPara></flowRoot>    <flowRoot
       xml:space="preserve"
       id="flowRoot5089"
       style="font-style:normal;font-weight:normal;font-size:40px;line-height:1.25;font-family:sans-serif;letter-spacing:0px;word-spacing:0px;fill:#000000;fill-opacity:1;stroke:none"
       transform="matrix(0.26458333,0,0,0.26458333,43.965838,3.8754081)"><flowRegion
         id="flowRegion5091"><rect
           id="rect5093"
           width="116.67262"
           height="123.74369"
           x="467.70062"
           y="222.47377" /></flowRegion><flowPara
         id="flowPara5095"></flowPara></flowRoot>    <text
       xml:space="preserve"
       style="font-style:normal;font-weight:normal;font-size:10.58333302px;line-height:1.25;font-family:sans-serif;letter-spacing:0px;word-spacing:0px;fill:#000000;fill-opacity:1;stroke:none;stroke-width:0.26458332;"
       x="73.506447"
       y="73.964005"
       id="text5113"
       inkscape:export-xdpi="300"
       inkscape:export-ydpi="300"><tspan
         sodipodi:role="line"
         id="tspan5111"
         x="73.506447"
         y="73.964005"
         style="font-style:normal;font-variant:normal;font-weight:bold;font-stretch:normal;font-size:11.28888893px;font-family:Ubuntu;-inkscape-font-specification:'Ubuntu Bold';stroke-width:0.26458332;fill:#000000;">© OpenStreetMap contributors</tspan></text>
    <g
       transform="matrix(1.161665,0,0,1.161665,-43.620372,-445.26174)"
       id="layer1-2"
       style="fill:#000000"
       inkscape:export-xdpi="300"
       inkscape:export-ydpi="300">
      <path
         inkscape:connector-curvature="0"
         d="m 49.153345,453.55265 c -0.78927,-0.19878 -1.20166,-0.52642 -3.30855,-2.62871 -2.50674,-2.50125 -2.66748,-2.74547 -2.66353,-4.04665 0.004,-1.45375 -0.43487,-0.93383 7.57393,-8.96412 8.08831,-8.11001 7.67181,-7.75655 9.13517,-7.75274 0.67646,0.002 0.84669,0.0403 1.39217,0.31508 l 0.62148,0.31306 1.96016,-1.96017 1.96017,-1.96016 -0.4911,-0.76558 c -0.95564,-1.48975 -1.85634,-3.6635 -2.261,-5.45669 -1.14242,-5.06242 0.0891,-10.41791 3.32961,-14.47948 5.59025,-7.00664 15.63301,-8.56087 23.06026,-3.56881 4.07567,2.73936 6.72473,6.97085 7.47915,11.94686 0.15948,1.05192 0.16039,3.55036 0.002,4.66015 -0.55211,3.86097 -2.19556,7.14242 -4.95661,9.8968 -1.42244,1.41899 -2.56285,2.24109 -4.37332,3.1526 -2.15538,1.08517 -3.98398,1.59438 -6.46864,1.80131 -3.54026,0.29484 -7.46535,-0.68429 -10.47026,-2.61185 l -0.76558,-0.4911 -1.96016,1.96016 -1.96017,1.96017 0.31307,0.62147 c 0.27478,0.54548 0.31331,0.71571 0.31507,1.39218 0.004,1.46164 0.35072,1.05202 -7.70469,9.09748 -6.20347,6.19581 -7.1584,7.11267 -7.63354,7.32925 -0.60858,0.2774 -1.55204,0.38374 -2.12478,0.23949 z m 33.29594,-22.52081 c 4.47674,-0.81946 8.3862,-3.80005 10.34577,-7.88765 3.12421,-6.51701 1.02301,-14.17604 -4.99993,-18.22503 -1.43679,-0.9659 -3.44315,-1.78014 -5.32615,-2.16149 -1.3045,-0.2642 -4.06475,-0.23718 -5.42534,0.0531 -2.03097,0.4333 -3.89564,1.24134 -5.51151,2.38836 -0.99858,0.70884 -2.64513,2.35472 -3.34255,3.34118 -3.86467,5.46635 -3.51502,12.73157 0.85543,17.7747 2.24032,2.58513 5.33875,4.28207 8.76731,4.80164 1.13862,0.17255 3.46328,0.13003 4.63697,-0.0848 z m -3.96437,-1.94652 c -1.54456,-0.24456 -2.85403,-0.63675 -3.91548,-1.1727 l -0.60054,-0.30322 v -2.7851 -2.78509 h -1.05861 c -0.92057,0 -2.18157,0.18074 -3.09223,0.44323 -0.1208,0.0348 -0.17081,0.17477 -0.19217,0.53771 l -0.0289,0.49065 -0.45941,-0.8732 c -1.00738,-1.91476 -1.36622,-3.42212 -1.3662,-5.73896 10e-6,-1.79124 0.12725,-2.61596 0.62542,-4.05368 0.26443,-0.76317 0.9161,-2.11479 1.20113,-2.49125 0.12387,-0.16362 0.13737,-0.12771 0.14013,0.37275 l 0.003,0.5538 3.1468,-0.0253 3.1468,-0.0253 0.0279,-0.79271 0.0279,-0.7927 h -1.06082 -1.06083 v -1.72759 -1.72758 l 0.37585,-0.19175 c 0.61978,-0.31619 1.77075,-0.75158 2.4228,-0.9165 0.33681,-0.0852 0.68246,-0.17537 0.7681,-0.2004 0.13464,-0.0394 0.14495,0.0101 0.0762,0.36538 -0.13259,0.68562 -0.0976,2.5672 0.0601,3.23647 0.31231,1.32496 1.08891,2.30563 2.14396,2.70735 0.62994,0.23986 1.81778,0.28529 2.51236,0.0961 0.66228,-0.18039 1.39696,-0.71216 1.77082,-1.28174 0.55294,-0.8424 0.74788,-1.5781 0.80139,-3.02448 l 0.0471,-1.2715 0.77672,0.40409 c 0.89466,0.46546 1.98242,1.25101 2.77751,2.00585 0.53486,0.50779 0.55249,0.54051 0.55249,1.02542 v 0.50089 h -1.05694 -1.05694 v 0.81672 0.81673 h 1.9506 1.95061 l 0.21007,0.43238 0.21006,0.43239 -1.07971,-0.002 c -0.74374,-0.002 -1.41607,0.065 -2.16067,0.21405 l -1.08096,0.21632 v 0.79485 c 0,0.43717 0.0169,0.79485 0.0375,0.79485 0.0206,0 0.45775,-0.0865 0.97143,-0.19217 0.51369,-0.1057 0.97245,-0.19217 1.01948,-0.19217 0.048,0 0.0855,1.26126 0.0855,2.87931 v 2.87931 l -1.03292,0.0273 -1.03292,0.0273 -0.0279,0.79095 -0.0279,0.79096 2.25639,0.0258 2.2564,0.0258 -0.16635,0.3769 -0.16635,0.37691 -1.1974,0.007 c -1.10688,0.007 -1.2385,0.0276 -1.74129,0.27453 -1.3125,0.64454 -2.0183,2.10655 -2.03988,4.22548 l -0.0105,1.0335 -0.64233,0.33767 c -0.56082,0.29483 -2.52229,1.00636 -2.77421,1.00636 -0.055,0 -0.0906,-1.33939 -0.0906,-3.41103 v -3.41103 h -1.04636 c -0.67328,0 -1.38416,0.0692 -1.99377,0.19415 -1.40887,0.28871 -1.28371,0.18523 -1.28371,1.06143 0,0.56154 0.0329,0.76221 0.12497,0.76221 0.0687,0 0.51193,-0.0855 0.98488,-0.19009 0.47294,-0.10455 0.89233,-0.19103 0.93196,-0.19217 0.0396,-10e-4 0.0721,1.23021 0.0721,2.73635 v 2.73844 l -0.84075,-0.0131 c -0.46241,-0.007 -0.94884,-0.0302 -1.08096,-0.0511 z m -4.39784,-7.98559 c 0.98836,-0.4372 1.73763,-1.43852 2.04176,-2.72859 0.18257,-0.77443 0.18513,-2.52175 0.005,-3.3721 -0.28369,-1.33877 -1.07428,-2.35708 -2.15074,-2.77022 -0.76485,-0.29355 -2.05469,-0.29167 -2.82574,0.004 -1.07709,0.41318 -1.83547,1.42602 -2.13844,2.85595 -0.17789,0.83957 -0.17851,2.39265 -0.001,3.22892 0.29524,1.39327 1.17694,2.49092 2.29488,2.85696 0.78176,0.25597 2.10741,0.22012 2.77465,-0.075 z m -2.2231,-1.614 c -0.39372,-0.33129 -0.57905,-0.98887 -0.64791,-2.29884 -0.0616,-1.17117 0.0717,-2.38219 0.31949,-2.90446 0.22671,-0.47776 0.64963,-0.71968 1.16619,-0.66709 0.82666,0.0842 1.14434,0.72961 1.23765,2.51461 0.0973,1.86079 -0.20969,3.2265 -0.78404,3.48819 -0.43294,0.19726 -0.96435,0.14277 -1.29138,-0.13241 z m 10.58907,1.68772 c 1.67291,-0.51671 2.54432,-2.24692 2.44334,-4.85133 -0.0859,-2.21663 -0.87676,-3.58368 -2.39885,-4.14679 -0.63172,-0.23371 -2.0046,-0.20633 -2.68156,0.0535 -1.07105,0.41107 -1.83349,1.38664 -2.15547,2.75801 -0.22446,0.95602 -0.14534,3.12425 0.1434,3.92948 0.45053,1.25645 1.29758,2.08955 2.38503,2.34575 0.64728,0.1525 1.60482,0.11502 2.26411,-0.0886 z m -1.86564,-1.58472 c -0.55629,-0.30231 -0.81055,-1.47383 -0.72845,-3.35639 0.0625,-1.43315 0.16365,-1.86584 0.53269,-2.27888 0.52678,-0.58957 1.51536,-0.4222 1.86558,0.31584 0.38412,0.80947 0.44958,3.36036 0.11513,4.48655 -0.1895,0.63814 -0.58566,0.9787 -1.13236,0.97346 -0.22054,-0.002 -0.51421,-0.0654 -0.65259,-0.14058 z m -9.5056,5.75027 c -0.81076,-0.84732 -1.11013,-1.26895 -0.93913,-1.32267 0.32146,-0.101 1.55452,-0.34135 1.58661,-0.30926 0.0198,0.0198 0.0237,0.54298 0.009,1.16267 l -0.0272,1.1267 -0.62909,-0.65744 z m 17.45004,-0.12897 c 0.0771,-0.66807 0.34281,-1.28654 0.63359,-1.47472 0.3181,-0.20586 0.71273,-0.28727 0.89583,-0.1848 0.13465,0.0754 0.0974,0.16571 -0.27065,0.65725 -0.23472,0.31343 -0.62768,0.78607 -0.87326,1.05031 l -0.44649,0.48043 0.061,-0.52847 z m 2.74175,-9.34431 0.009,-3.67527 0.28699,0.86477 c 0.56745,1.70982 0.76774,3.54564 0.56711,5.198 -0.15748,1.29698 -0.1536,1.28777 -0.54291,1.28777 h -0.32983 l 0.009,-3.67527 z m -10.54142,-6.12353 c -0.28705,-0.11598 -0.59357,-0.53639 -0.72863,-0.99934 -0.1313,-0.45005 -0.16707,-3.17797 -0.049,-3.73479 0.0711,-0.33529 0.10038,-0.36032 0.42149,-0.36032 0.68951,0 2.04064,0.22566 2.08786,0.3487 0.0259,0.0676 0.0759,0.54649 0.11097,1.06417 0.0733,1.08128 -0.081,2.59133 -0.31513,3.08479 -0.26899,0.56685 -0.94655,0.83156 -1.52759,0.59679 z m -10.52288,-0.26615 c 0.0498,-0.0925 0.41684,-0.51406 0.8156,-0.93684 l 0.72504,-0.76868 0.004,0.93683 0.004,0.93684 h -0.8201 c -0.7515,0 -0.81253,-0.0141 -0.72954,-0.16815 z m 3.83706,38.13603 c -2.67902,-0.77406 -4.8967,-1.43431 -4.92819,-1.46724 -0.059,-0.0617 2.70974,-9.88097 2.81952,-9.99923 0.0547,-0.0589 9.53437,2.59585 9.92277,2.77886 0.1373,0.0647 -0.008,0.65019 -1.17839,4.73397 -0.73428,2.56308 -1.37936,4.82229 -1.43351,5.02046 -0.0542,0.19818 -0.15083,0.35588 -0.21485,0.35044 -0.064,-0.005 -2.30833,-0.6432 -4.98735,-1.41726 z m 6.55244,1.17332 c 0,-0.11986 2.75458,-9.74106 2.79829,-9.77388 0.0997,-0.0749 9.71672,-2.75978 9.7535,-2.723 0.0435,0.0435 -2.68833,9.74811 -2.76007,9.80498 -0.049,0.0388 -9.28068,2.67317 -9.57553,2.73247 -0.1189,0.0239 -0.21619,0.006 -0.21619,-0.0406 z m -15.97914,-4.29582 c 1.90048,-1.91042 3.59414,-3.65477 3.76369,-3.87633 0.38223,-0.49952 0.91352,-1.64824 1.058,-2.28755 0.0597,-0.26424 0.11917,-0.7909 0.13212,-1.17036 l 0.0236,-0.68994 0.41112,-0.11603 c 0.22611,-0.0638 0.42844,-0.0987 0.44962,-0.0775 0.0527,0.0527 -2.71274,9.71086 -2.80487,9.79572 -0.0405,0.0373 -1.51704,0.47908 -3.28117,0.98168 l -3.2075,0.91382 3.45544,-3.47349 z m 18.62971,-6.87255 c -0.0196,-0.0327 -0.0797,-0.22045 -0.13356,-0.41711 l -0.0979,-0.35756 0.35181,-0.0595 c 3.01446,-0.51001 6.24294,-1.92535 8.78589,-3.85166 0.36329,-0.2752 0.56917,-0.37858 0.59589,-0.29922 0.12326,0.36614 0.61414,2.13552 0.59716,2.15249 -0.0764,0.0764 -10.07113,2.87963 -10.09933,2.83258 z m -33.89362,-2.91809 c -0.11626,-0.0943 -2.65277,-8.69681 -2.84416,-9.6459 -0.0383,-0.19002 0.33003,-0.0993 4.88567,1.20288 4.76674,1.36256 4.92934,1.41674 4.99565,1.66465 0.0591,0.22112 0.0205,0.28971 -0.28183,0.50033 -0.1927,0.13425 -1.73374,1.62875 -3.42454,3.32112 -1.69079,1.69237 -3.09859,3.07703 -3.12843,3.07703 -0.0298,0 -0.12091,-0.0541 -0.20236,-0.12011 z m 1.84091,-9.84626 c -2.66878,-0.76719 -4.86015,-1.40111 -4.86971,-1.40871 -0.0334,-0.0265 2.82853,-9.96454 2.88616,-10.02217 0.0502,-0.0502 9.94195,2.72123 10.04463,2.81422 0.0209,0.0189 -0.60418,2.2837 -1.389,5.03289 -1.29576,4.53899 -1.44501,4.99762 -1.62336,4.9886 -0.10802,-0.005 -2.37995,-0.63763 -5.04872,-1.40483 z m 6.65056,1.20966 c 0.0273,-0.0722 0.47612,-1.62292 0.99727,-3.44614 l 0.94755,-3.31495 0.12352,0.72064 c 0.21402,1.2486 0.59353,2.67182 1.04343,3.91297 0.23915,0.65973 0.42128,1.21135 0.40474,1.22584 -0.0165,0.0145 -0.74349,0.22823 -1.61547,0.47499 -0.87198,0.24677 -1.66762,0.47323 -1.76809,0.50325 -0.1282,0.0383 -0.16785,0.0155 -0.13295,-0.0766 z m -3.67192,-12.64476 c -2.66877,-0.76771 -4.87539,-1.43168 -4.90361,-1.47549 -0.0917,-0.14236 -2.80125,-9.71 -2.76121,-9.75004 0.0563,-0.0563 9.68449,2.70676 9.77639,2.80557 0.10307,0.11082 2.87454,9.83845 2.79941,9.82573 -0.0323,-0.005 -2.2422,-0.63806 -4.91098,-1.40577 z m 4.82251,-3.85029 c -0.53799,-1.88636 -1.05972,-3.71433 -1.1594,-4.06217 l -0.18123,-0.63242 3.808,-1.08569 c 2.09439,-0.59713 3.87285,-1.10995 3.95212,-1.13961 0.0793,-0.0297 -0.18308,0.3111 -0.583,0.75725 -2.1267,2.37252 -3.52096,4.91483 -4.40282,8.02812 -0.16438,0.58035 -0.29888,1.14794 -0.29888,1.26132 0,0.65763 -0.25897,-0.056 -1.13479,-3.1268 z"
         id="path3940"
         style="display:inline;fill:#000000" />
    </g>
  </g>
</svg>
